<svg width="300" height="300" viewBox="0 0 300 300" fill="none" xmlns="http://www.w3.org/2000/svg">
<g clip-path="url(#clip0_620_20019)">
<mask id="mask0_620_20019" style="mask-type:luminance" maskUnits="userSpaceOnUse" x="0" y="0" width="300" height="300">
<path d="M300 0H0V300H300V0Z" fill="white"/>
</mask>
<g mask="url(#mask0_620_20019)">
<path d="M241.633 155.232C241.633 206.351 200.193 247.792 149.074 247.792C97.9546 247.792 56.5142 206.351 56.5142 155.232C56.5142 104.113 97.9546 62.6724 149.074 62.6724C200.193 62.6724 241.633 104.113 241.633 155.232Z" fill="#F5F5F7"/>
<path d="M223.791 155.232C223.791 196.497 190.339 229.949 149.074 229.949C107.808 229.949 74.3564 196.497 74.3564 155.232C74.3564 113.967 107.808 80.5148 149.074 80.5148C190.339 80.5148 223.791 113.967 223.791 155.232Z" stroke="#00A05D" stroke-width="15.9526" stroke-miterlimit="10"/>
<path d="M212.419 155.232C212.419 190.217 184.058 218.577 149.074 218.577C114.089 218.577 85.728 190.217 85.728 155.232C85.728 120.247 114.089 91.8868 149.074 91.8868C184.058 91.8868 212.419 120.247 212.419 155.232Z" fill="#00A05D"/>
<mask id="mask1_620_20019" style="mask-type:luminance" maskUnits="userSpaceOnUse" x="-84" y="-84" width="445" height="445">
<path d="M-83.5557 -83.7H360.444V360.3H-83.5557V-83.7Z" fill="white"/>
</mask>
<g mask="url(#mask1_620_20019)">
<mask id="mask2_620_20019" style="mask-type:alpha" maskUnits="userSpaceOnUse" x="117" y="133" width="65" height="45">
<path d="M140.287 177.329C138.578 177.329 136.874 176.651 135.609 175.313L118.883 157.602C116.444 155.019 116.56 150.948 119.143 148.509C121.725 146.071 125.796 146.186 128.236 148.769L140.619 161.881L170.25 134.818C172.873 132.422 176.942 132.607 179.337 135.23C181.733 137.853 181.549 141.922 178.926 144.317L144.623 175.646C143.391 176.772 141.837 177.329 140.287 177.329Z" fill="white"/>
</mask>
<g mask="url(#mask2_620_20019)">
<path d="M187.618 128.553L186.256 185.476L103.984 183.508L105.346 126.585L187.618 128.553Z" fill="white"/>
</g>
</g>
<mask id="mask3_620_20019" style="mask-type:luminance" maskUnits="userSpaceOnUse" x="57" y="81" width="27" height="28">
<path d="M57.291 81.4022H83.931V108.042H57.291V81.4022Z" fill="white"/>
</mask>
<g mask="url(#mask3_620_20019)">
<path d="M66.546 88.5246C66.483 88.35 66.7142 88.2231 66.8285 88.3694C67.8775 89.7122 69.8925 92.1456 70.9056 92.4015C71.9127 92.6559 74.8127 91.4871 76.3805 90.8018C76.5512 90.7272 76.6938 90.9503 76.5539 91.0735C75.3147 92.1644 73.1502 94.1829 72.8982 95.1803C72.6329 96.2303 73.6955 99.2826 74.252 100.765C74.315 100.933 74.1007 101.065 73.9793 100.933C72.9233 99.783 70.7292 97.5066 69.6827 97.2422C68.6318 96.9768 65.599 97.9471 64.1305 98.4555C63.9618 98.514 63.8355 98.2974 63.9692 98.179C65.1432 97.1389 67.51 94.9395 67.776 93.8863C68.0292 92.884 67.101 90.0642 66.546 88.5246Z" fill="#00A05D"/>
</g>
<mask id="mask4_620_20019" style="mask-type:luminance" maskUnits="userSpaceOnUse" x="214" y="153" width="37" height="36">
<path d="M214.829 153.018H250.349V188.538H214.829V153.018Z" fill="white"/>
</mask>
<g mask="url(#mask4_620_20019)">
<path d="M224.711 162.726C224.564 162.485 224.869 162.225 225.084 162.408C227.057 164.086 230.802 167.091 232.389 167.161C233.966 167.231 237.925 164.603 240.049 163.102C240.28 162.939 240.561 163.227 240.39 163.453C238.88 165.457 236.276 169.125 236.207 170.687C236.134 172.332 238.651 176.55 239.933 178.585C240.079 178.816 239.8 179.078 239.579 178.919C237.655 177.531 233.691 174.815 232.052 174.742C230.406 174.669 226.189 177.043 224.158 178.25C223.925 178.388 223.671 178.105 223.833 177.887C225.262 175.979 228.112 171.98 228.185 170.331C228.255 168.761 226.009 164.848 224.711 162.726Z" fill="#00A05D"/>
</g>
<mask id="mask5_620_20019" style="mask-type:luminance" maskUnits="userSpaceOnUse" x="194" y="203" width="21" height="22">
<path d="M194.519 203.83H214.748V224.059H194.519V203.83Z" fill="white"/>
</mask>
<g mask="url(#mask5_620_20019)">
<path d="M199.554 209.978C199.452 209.853 199.604 209.682 199.74 209.769C200.988 210.563 203.342 211.969 204.245 211.884C205.143 211.8 207.176 210.003 208.259 208.988C208.377 208.877 208.559 209.018 208.48 209.16C207.783 210.411 206.598 212.69 206.681 213.579C206.769 214.515 208.523 216.704 209.408 217.755C209.509 217.874 209.372 218.044 209.234 217.971C208.037 217.337 205.582 216.112 204.649 216.199C203.712 216.287 201.513 217.96 200.459 218.802C200.338 218.899 200.172 218.758 200.247 218.623C200.906 217.431 202.204 214.946 202.116 214.007C202.032 213.114 200.455 211.076 199.554 209.978Z" fill="#00A05D"/>
</g>
<mask id="mask6_620_20019" style="mask-type:luminance" maskUnits="userSpaceOnUse" x="199" y="68" width="28" height="27">
<path d="M199.947 68.2466H226.587V94.8866H199.947V68.2466Z" fill="white"/>
</mask>
<g mask="url(#mask6_620_20019)">
<path d="M205.134 82.1605C204.932 82.1358 204.922 81.8466 205.122 81.807C206.956 81.4434 210.337 80.673 211.089 79.807C211.836 78.9462 212.126 75.527 212.23 73.6521C212.241 73.4479 212.53 73.4186 212.582 73.6165C213.037 75.3702 213.944 78.4891 214.797 79.2293C215.694 80.0085 219.21 80.4773 220.937 80.6651C221.133 80.6864 221.157 80.9617 220.967 81.0153C219.318 81.4813 216.003 82.5049 215.226 83.3994C214.447 84.2976 213.897 87.7488 213.669 89.4389C213.643 89.6332 213.368 89.6498 213.318 89.4602C212.88 87.7955 211.896 84.389 210.996 83.6074C210.139 82.8636 206.917 82.3783 205.134 82.1605Z" fill="#00A05D"/>
</g>
<mask id="mask7_620_20019" style="mask-type:luminance" maskUnits="userSpaceOnUse" x="58" y="195" width="45" height="46">
<path d="M58.2778 195.856H102.678V240.256H58.2778V195.856Z" fill="white"/>
</mask>
<g mask="url(#mask7_620_20019)">
<path d="M77.6688 229.419C77.5479 229.697 77.13 229.589 77.158 229.287C77.4148 226.509 77.7446 221.348 76.8245 219.906C75.9099 218.472 71.1422 216.611 68.5048 215.668C68.2176 215.565 68.2981 215.139 68.6029 215.149C71.3041 215.24 76.1489 215.264 77.5685 214.358C79.063 213.404 81.2224 208.575 82.2225 206.184C82.3358 205.913 82.7396 205.996 82.7359 206.29C82.7042 208.845 82.7641 214.02 83.7145 215.51C84.6689 217.005 89.3721 219.253 91.6928 220.295C91.9595 220.415 91.8669 220.814 91.5747 220.806C89.0082 220.727 83.7194 220.692 82.2204 221.649C80.7937 222.559 78.7352 226.961 77.6688 229.419Z" fill="#00A05D"/>
</g>
</g>
</g>
<defs>
<clipPath id="clip0_620_20019">
<rect width="300" height="300" fill="white"/>
</clipPath>
</defs>
</svg>
