<svg width="16" height="16" viewBox="0 0 16 16" fill="none" xmlns="http://www.w3.org/2000/svg">
<path d="M10.7668 8.55337L9.61346 8.94004C9.29346 9.04671 9.04679 9.29338 8.94013 9.61338L8.55346 10.7667C8.22679 11.76 6.82679 11.74 6.52012 10.7467L5.22012 6.56004C4.96679 5.72671 5.73346 4.96005 6.55346 5.21338L10.7468 6.51337C11.7401 6.8267 11.7535 8.2267 10.7668 8.55337Z" stroke="white" stroke-linecap="round" stroke-linejoin="round"/>
<path d="M7.99967 14.6667C11.6816 14.6667 14.6663 11.6819 14.6663 8.00004C14.6663 4.31814 11.6816 1.33337 7.99967 1.33337C4.31778 1.33337 1.33301 4.31814 1.33301 8.00004C1.33301 11.6819 4.31778 14.6667 7.99967 14.6667Z" stroke="white" stroke-linecap="round" stroke-linejoin="round"/>
</svg>
