<svg width="20" height="20" viewBox="0 0 20 20" fill="none" xmlns="http://www.w3.org/2000/svg">
<g clip-path="url(#clip0_659_20865)">
<path d="M1.66797 8.3165V7.49984C1.66797 3.33317 3.33464 1.6665 7.5013 1.6665H12.5013C16.668 1.6665 18.3346 3.33317 18.3346 7.49984V12.4998C18.3346 16.6665 16.668 18.3332 12.5013 18.3332H11.668" stroke="#0088FF" stroke-width="1.5" stroke-linecap="round" stroke-linejoin="round"/>
<path d="M10.8346 9.16673L15.0096 4.9834M15.0096 4.9834H11.668M15.0096 4.9834V8.32506M9.16797 13.4584V15.7084C9.16797 17.5834 8.41797 18.3334 6.54297 18.3334H4.29297C2.41797 18.3334 1.66797 17.5834 1.66797 15.7084V13.4584C1.66797 11.5834 2.41797 10.8334 4.29297 10.8334H6.54297C8.41797 10.8334 9.16797 11.5834 9.16797 13.4584Z" stroke="#0088FF" stroke-width="1.5" stroke-linecap="round" stroke-linejoin="round"/>
</g>
<defs>
<clipPath id="clip0_659_20865">
<rect width="20" height="20" fill="white"/>
</clipPath>
</defs>
</svg>
