<svg width="18" height="18" viewBox="0 0 18 18" fill="none" xmlns="http://www.w3.org/2000/svg">
<path d="M6.28516 9.00006L8.09266 10.8151L11.7152 7.18506" stroke="white" stroke-width="1.5" stroke-linecap="round" stroke-linejoin="round"/>
<path d="M8.06266 1.83749C8.58016 1.39499 9.42766 1.39499 9.95266 1.83749L11.1377 2.85749C11.3627 3.05249 11.7827 3.20999 12.0827 3.20999H13.3577C14.1527 3.20999 14.8052 3.86249 14.8052 4.65749V5.93249C14.8052 6.22499 14.9627 6.65249 15.1577 6.87749L16.1777 8.06249C16.6202 8.57999 16.6202 9.42749 16.1777 9.95249L15.1577 11.1375C14.9627 11.3625 14.8052 11.7825 14.8052 12.0825V13.3575C14.8052 14.1525 14.1527 14.805 13.3577 14.805H12.0827C11.7902 14.805 11.3627 14.9625 11.1377 15.1575L9.95266 16.1775C9.43516 16.62 8.58766 16.62 8.06266 16.1775L6.87766 15.1575C6.65266 14.9625 6.23266 14.805 5.93266 14.805H4.63516C3.84016 14.805 3.18766 14.1525 3.18766 13.3575V12.075C3.18766 11.7825 3.03016 11.3625 2.84266 11.1375L1.83016 9.94499C1.39516 9.42749 1.39516 8.58749 1.83016 8.06999L2.84266 6.87749C3.03016 6.65249 3.18766 6.23249 3.18766 5.93999V4.64999C3.18766 3.85499 3.84016 3.20249 4.63516 3.20249H5.93266C6.22516 3.20249 6.65266 3.04499 6.87766 2.84999L8.06266 1.83749Z" stroke="white" stroke-width="1.5" stroke-linecap="round" stroke-linejoin="round"/>
</svg>
